<?xml version="1.0" encoding="UTF-8" standalone="no"?><!DOCTYPE svg PUBLIC "-//W3C//DTD SVG 1.1//EN" "http://www.w3.org/Graphics/SVG/1.1/DTD/svg11.dtd"><svg width="100%" height="100%" viewBox="0 0 680 339" version="1.1" xmlns="http://www.w3.org/2000/svg" xmlns:xlink="http://www.w3.org/1999/xlink" xml:space="preserve" xmlns:serif="http://www.serif.com/" style="fill-rule:evenodd;clip-rule:evenodd;stroke-linejoin:round;stroke-miterlimit:2;"><g><path id="Rechteck-3-Kopie-4" serif:id="Rechteck 3 Kopie 4" d="M253.517,52.078c-0,-28.743 -23.336,-52.078 -52.078,-52.078l-91.168,0c-28.743,0 -52.078,23.335 -52.078,52.078l-0,0.24c-0,28.743 23.335,52.078 52.078,52.078l91.168,0c28.742,0 52.078,-23.335 52.078,-52.078l-0,-0.24Z" style="fill:#fbd111;"/><path id="Rechteck-3-Kopie-41" serif:id="Rechteck 3 Kopie 4" d="M253.517,285.949c-0,-28.742 -23.336,-52.078 -52.078,-52.078l-91.168,0c-28.743,0 -52.078,23.336 -52.078,52.078l-0,0.24c-0,28.743 23.335,52.078 52.078,52.078l91.168,0c28.742,0 52.078,-23.335 52.078,-52.078l-0,-0.24Z" style="fill:#6db535;"/><path id="Rechteck-3-Kopie-42" serif:id="Rechteck 3 Kopie 4" d="M211.947,168.984c0,-28.743 -23.335,-52.078 -52.078,-52.078l-107.791,0c-28.743,0 -52.078,23.335 -52.078,52.078l0,0.24c0,28.743 23.335,52.078 52.078,52.078l107.791,0c28.743,0 52.078,-23.335 52.078,-52.078l0,-0.24Z" style="fill:#257bc5;"/><g id="Dow-Kopie" serif:id="Dow Kopie"><path d="M224.993,211.323l0,-93.512l44.906,-0c10.492,-0 19.717,1.915 27.677,5.744c7.959,3.83 14.177,9.218 18.654,16.164c4.477,6.947 6.716,15.229 6.716,24.848c-0,9.529 -2.239,17.789 -6.716,24.781c-4.477,6.991 -10.695,12.401 -18.654,16.231c-7.96,3.829 -17.185,5.744 -27.677,5.744l-44.906,-0Zm26.863,-21.107l16.958,-0c5.427,-0 10.153,-1.002 14.177,-3.006c4.025,-2.004 7.168,-4.943 9.429,-8.817c2.261,-3.874 3.392,-8.483 3.392,-13.826c0,-5.433 -1.131,-10.064 -3.392,-13.893c-2.261,-3.83 -5.404,-6.747 -9.429,-8.75c-4.024,-2.004 -8.75,-3.006 -14.177,-3.006l-16.958,-0l-0,51.298Z" style="fill:#fff;fill-rule:nonzero;"/><path d="M372.736,212.525c-8.05,0 -15.195,-1.603 -21.436,-4.809c-6.241,-3.206 -11.147,-7.637 -14.72,-13.292c-3.572,-5.655 -5.359,-12.134 -5.359,-19.437c0,-7.303 1.787,-13.76 5.359,-19.371c3.573,-5.61 8.479,-9.997 14.72,-13.158c6.241,-3.162 13.386,-4.743 21.436,-4.743c8.049,0 15.217,1.581 21.503,4.743c6.286,3.161 11.193,7.548 14.72,13.158c3.527,5.611 5.291,12.068 5.291,19.371c0,7.303 -1.764,13.782 -5.291,19.437c-3.527,5.655 -8.434,10.086 -14.72,13.292c-6.286,3.206 -13.454,4.809 -21.503,4.809Zm-0,-20.172c2.984,0 5.63,-0.668 7.936,-2.004c2.307,-1.335 4.138,-3.317 5.495,-5.944c1.357,-2.628 2.035,-5.767 2.035,-9.418c-0,-3.652 -0.678,-6.747 -2.035,-9.285c-1.357,-2.538 -3.188,-4.475 -5.495,-5.811c-2.306,-1.336 -4.952,-2.004 -7.936,-2.004c-2.895,0 -5.495,0.668 -7.801,2.004c-2.307,1.336 -4.161,3.273 -5.563,5.811c-1.401,2.538 -2.102,5.633 -2.102,9.285c-0,3.651 0.701,6.79 2.102,9.418c1.402,2.627 3.256,4.609 5.563,5.944c2.306,1.336 4.906,2.004 7.801,2.004Z" style="fill:#fff;fill-rule:nonzero;"/><path d="M441.655,211.323l-26.184,-72.405l24.42,-0l20.758,60.515l-11.668,0l21.571,-60.515l21.979,-0l20.757,60.515l-11.396,0l21.435,-60.515l22.657,-0l-26.184,72.405l-24.963,-0l-17.637,-50.096l7.597,0l-18.179,50.096l-24.963,-0Z" style="fill:#fff;fill-rule:nonzero;"/></g><g id="Stack-Kopie" serif:id="Stack Kopie"><path d="M312.404,338.481c-7.778,0 -15.263,-0.957 -22.453,-2.872c-7.191,-1.915 -13.047,-4.386 -17.569,-7.414l8.818,-19.504c4.251,2.672 9.158,4.876 14.72,6.613c5.563,1.736 11.102,2.605 16.619,2.605c3.709,-0 6.693,-0.334 8.955,-1.002c2.261,-0.668 3.911,-1.559 4.951,-2.672c1.041,-1.113 1.561,-2.427 1.561,-3.941c-0,-2.137 -0.995,-3.829 -2.985,-5.076c-1.99,-1.247 -4.568,-2.271 -7.733,-3.073c-3.166,-0.801 -6.67,-1.603 -10.514,-2.404c-3.844,-0.802 -7.688,-1.826 -11.532,-3.073c-3.844,-1.247 -7.349,-2.872 -10.514,-4.876c-3.166,-2.004 -5.744,-4.631 -7.734,-7.882c-1.989,-3.25 -2.984,-7.369 -2.984,-12.357c-0,-5.61 1.56,-10.687 4.68,-15.229c3.121,-4.542 7.801,-8.193 14.042,-10.954c6.241,-2.761 14.019,-4.141 23.335,-4.141c6.241,-0 12.368,0.69 18.383,2.07c6.014,1.381 11.373,3.407 16.076,6.079l-8.275,19.637c-4.523,-2.404 -9,-4.208 -13.431,-5.41c-4.432,-1.202 -8.728,-1.804 -12.889,-1.804c-3.708,0 -6.693,0.379 -8.954,1.136c-2.261,0.757 -3.889,1.759 -4.884,3.006c-0.995,1.246 -1.492,2.671 -1.492,4.274c-0,2.049 0.972,3.674 2.917,4.876c1.944,1.203 4.522,2.182 7.733,2.939c3.21,0.757 6.738,1.537 10.582,2.338c3.844,0.802 7.688,1.804 11.531,3.006c3.844,1.202 7.349,2.805 10.515,4.809c3.165,2.004 5.72,4.631 7.665,7.882c1.945,3.251 2.917,7.325 2.917,12.223c-0,5.433 -1.56,10.442 -4.681,15.029c-3.12,4.586 -7.778,8.26 -13.973,11.021c-6.196,2.761 -13.997,4.141 -23.403,4.141Z" style="fill:#fff;fill-rule:nonzero;"/><path d="M398.417,337.813c-9.406,0 -16.732,-2.293 -21.978,-6.88c-5.246,-4.586 -7.869,-11.51 -7.869,-20.773l0,-62.118l25.777,-0l0,61.851c0,2.583 0.724,4.609 2.171,6.079c1.447,1.469 3.301,2.204 5.562,2.204c3.075,-0 5.698,-0.757 7.869,-2.271l6.376,17.767c-2.17,1.425 -4.838,2.471 -8.004,3.139c-3.166,0.668 -6.467,1.002 -9.904,1.002Zm-40.564,-51.966l-0,-18.969l53.317,-0l0,18.969l-53.317,0Z" style="fill:#fff;fill-rule:nonzero;"/><path d="M471.135,336.611l0,-13.492l-1.763,-3.34l-0,-24.848c-0,-4.007 -1.244,-7.102 -3.731,-9.284c-2.488,-2.182 -6.444,-3.273 -11.871,-3.273c-3.528,0 -7.1,0.557 -10.718,1.67c-3.618,1.113 -6.693,2.649 -9.225,4.609l-8.683,-17.233c4.16,-2.672 9.157,-4.743 14.991,-6.212c5.834,-1.47 11.645,-2.204 17.433,-2.204c11.939,-0 21.187,2.694 27.745,8.082c6.557,5.388 9.836,13.826 9.836,25.315l-0,40.21l-24.014,0Zm-21.707,1.202c-5.879,0 -10.853,-0.979 -14.923,-2.939c-4.07,-1.959 -7.168,-4.631 -9.293,-8.015c-2.126,-3.384 -3.189,-7.169 -3.189,-11.355c0,-4.453 1.154,-8.305 3.46,-11.555c2.306,-3.251 5.856,-5.745 10.65,-7.481c4.794,-1.737 10.989,-2.605 18.586,-2.605l17.366,-0l-0,13.225l-13.838,-0c-4.161,-0 -7.078,0.668 -8.751,2.004c-1.673,1.336 -2.51,3.117 -2.51,5.343c0,2.227 0.86,4.008 2.578,5.344c1.719,1.336 4.07,2.004 7.055,2.004c2.804,-0 5.359,-0.691 7.665,-2.071c2.306,-1.38 4.002,-3.496 5.088,-6.345l3.527,9.351c-1.357,4.987 -4.002,8.75 -7.937,11.288c-3.934,2.538 -9.112,3.807 -15.534,3.807Z" style="fill:#fff;fill-rule:nonzero;"/><path d="M549.958,337.813c-8.14,0 -15.398,-1.603 -21.774,-4.809c-6.377,-3.206 -11.374,-7.637 -14.992,-13.292c-3.617,-5.655 -5.426,-12.134 -5.426,-19.437c-0,-7.303 1.809,-13.76 5.426,-19.37c3.618,-5.611 8.615,-9.997 14.992,-13.159c6.376,-3.162 13.634,-4.742 21.774,-4.742c8.321,-0 15.512,1.736 21.572,5.21c6.059,3.473 10.356,8.371 12.888,14.694l-19.943,10.02c-1.719,-3.385 -3.844,-5.856 -6.377,-7.415c-2.532,-1.558 -5.291,-2.337 -8.275,-2.337c-2.985,-0 -5.698,0.667 -8.14,2.003c-2.442,1.336 -4.364,3.273 -5.766,5.811c-1.402,2.539 -2.103,5.633 -2.103,9.285c-0,3.74 0.701,6.902 2.103,9.485c1.402,2.582 3.324,4.542 5.766,5.878c2.442,1.335 5.155,2.003 8.14,2.003c2.984,0 5.743,-0.779 8.275,-2.337c2.533,-1.559 4.658,-4.03 6.377,-7.415l19.943,10.02c-2.532,6.323 -6.829,11.221 -12.888,14.694c-6.06,3.474 -13.251,5.21 -21.572,5.21Z" style="fill:#fff;fill-rule:nonzero;"/><path d="M615.35,323.252l0.679,-30.324l29.982,-28.722l30.526,-0l-33.239,33.798l-13.16,10.42l-14.788,14.828Zm-21.435,13.359l-0,-99.123l25.777,0l-0,99.123l-25.777,0Zm53.996,0l-22.521,-27.786l16.009,-19.504l37.715,47.29l-31.203,0Z" style="fill:#fff;fill-rule:nonzero;"/></g></g></svg>